<?xml version="1.0" standalone="no"?>
<!DOCTYPE svg PUBLIC "-//W3C//DTD SVG 20010904//EN"
 "http://www.w3.org/TR/2001/REC-SVG-20010904/DTD/svg10.dtd">
<svg version="1.0" xmlns="http://www.w3.org/2000/svg"
 width="1920.000000pt" height="462.000000pt" viewBox="0 0 1920.000000 462.000000"
 preserveAspectRatio="xMidYMid meet">

<g transform="translate(0.000000,462.000000) scale(0.100000,-0.100000)"
fill="#000000" stroke="none">
<path d="M8976 3945 c-14 -13 -26 -32 -26 -42 -1 -10 -8 -36 -17 -58 -8 -22
-16 -56 -17 -75 -1 -35 -1 -35 -43 -32 -82 7 -112 -31 -88 -111 15 -51 15 -52
-6 -69 -39 -32 -49 -24 -49 41 0 32 -7 78 -15 102 -53 150 -249 187 -362 68
-64 -68 -72 -131 -54 -439 22 -364 24 -456 9 -440 -21 22 -226 352 -402 647
-53 88 -110 173 -126 187 -31 26 -115 56 -155 56 -40 0 -122 -30 -163 -60 -25
-18 -52 -51 -68 -82 l-26 -51 6 -666 c7 -720 11 -828 33 -881 28 -69 96 -117
182 -127 63 -7 140 26 186 79 56 66 59 98 51 495 -4 194 -5 353 -2 353 2 0 30
-42 62 -92 115 -185 363 -555 437 -654 88 -117 122 -140 207 -138 65 2 114 20
162 63 l35 31 28 -42 c31 -46 30 -9 9 -423 -8 -145 -3 -160 57 -172 16 -3 30
-8 30 -12 7 -38 5 -516 -2 -550 -6 -26 -13 -67 -16 -93 -5 -43 -3 -50 25 -78
35 -34 74 -39 111 -14 42 30 52 75 57 253 3 91 7 171 9 177 2 6 17 14 34 17
16 4 37 17 45 29 18 27 36 228 35 385 -1 100 0 103 30 140 30 36 31 42 31 128
1 187 18 382 35 409 44 67 61 10 51 -169 -6 -114 -5 -123 14 -148 17 -22 30
-27 65 -27 36 0 48 5 69 31 22 26 26 40 26 93 -1 94 6 147 24 192 l17 41 37
-13 37 -12 -4 -279 c-2 -207 -7 -287 -17 -312 -19 -47 -17 -88 6 -126 35 -57
94 -54 144 9 l31 38 6 266 c3 147 6 268 7 269 1 2 21 0 45 -2 75 -10 104 33
112 165 9 133 11 140 40 140 32 0 33 -2 40 -255 3 -115 10 -250 15 -300 6 -49
13 -278 16 -507 l7 -418 26 -52 c38 -75 95 -111 182 -116 100 -6 168 36 220
137 21 40 22 57 23 230 1 102 -1 222 -4 266 l-5 80 150 6 c83 3 165 9 182 13
39 9 56 -1 112 -69 86 -103 124 -218 136 -410 10 -150 38 -205 128 -250 113
-56 243 -12 298 103 20 41 23 60 21 157 -5 293 -107 570 -261 712 l-35 33 25
72 c21 64 24 91 24 223 0 130 -3 159 -23 215 -45 130 -133 230 -257 290 -151
75 -292 95 -560 79 -177 -9 -235 -18 -271 -37 -12 -6 -24 -9 -26 -6 -3 2 8 48
23 100 16 53 29 105 29 114 0 10 15 37 34 59 l35 41 -4 98 c-3 106 -18 198
-41 264 -13 39 -13 46 2 81 17 37 17 39 -10 105 -15 37 -39 82 -52 100 -31 39
-114 89 -166 97 -34 6 -38 10 -38 37 0 20 -10 40 -30 60 -27 27 -36 30 -69 24
-30 -5 -49 0 -92 24 -30 16 -75 34 -101 39 -63 15 -176 -2 -246 -35 -51 -24
-55 -25 -87 -10 -43 21 -72 20 -115 -3 -31 -17 -38 -17 -62 -5 -26 14 -28 19
-28 78 0 35 -5 77 -11 95 -19 55 -69 67 -113 26z m-381 -188 c71 -39 82 -78
95 -327 6 -118 15 -269 19 -335 4 -66 7 -244 6 -396 -2 -231 -5 -280 -19 -307
-9 -17 -16 -55 -16 -86 0 -51 3 -57 36 -84 32 -26 36 -34 30 -59 -24 -96 -165
-175 -258 -144 -19 6 -46 24 -60 39 -58 62 -352 501 -566 847 -90 146 -120
181 -115 138 0 -9 6 -214 12 -457 11 -453 9 -496 -26 -545 -29 -40 -106 -75
-147 -67 -49 9 -98 46 -120 89 -17 36 -19 83 -24 787 l-5 749 28 37 c66 86
220 101 287 27 10 -11 76 -116 146 -234 225 -375 490 -794 498 -786 3 2 -2
119 -10 258 -9 140 -20 358 -26 486 -14 289 -10 310 74 367 49 33 106 34 161
3z m175 -393 c20 -130 21 -178 7 -198 -29 -39 -37 -9 -37 137 0 149 12 175 30
61z m675 -220 c0 -100 -5 -163 -14 -190 -20 -61 0 -139 40 -159 25 -13 33 -13
61 -2 72 31 87 78 86 257 -1 69 2 136 6 149 8 24 9 24 22 -10 8 -19 28 -45 45
-59 l31 -26 -27 -109 c-14 -60 -24 -117 -22 -126 6 -22 -1 -31 -43 -56 -51
-31 -81 -67 -89 -105 l-7 -33 -84 -2 c-47 -2 -105 -4 -130 -5 -44 -3 -45 -2
-48 29 -2 21 -14 41 -33 57 l-30 26 16 45 c8 25 15 65 15 89 l0 44 40 -5 c80
-11 118 41 119 162 1 139 10 190 34 182 9 -3 12 -49 12 -153z m1310 -616 c178
-26 324 -121 388 -252 77 -156 77 -388 1 -525 -13 -25 -21 -47 -17 -51 5 -4
27 -21 51 -39 151 -117 261 -408 262 -699 0 -125 -31 -176 -121 -204 -69 -20
-156 20 -183 85 -7 18 -16 80 -19 140 -14 229 -86 394 -221 505 -31 26 -45 32
-65 27 -66 -17 -157 -25 -281 -24 l-135 1 4 -295 4 -296 -27 -45 c-65 -112
-217 -115 -280 -7 -18 32 -20 50 -17 225 2 183 -19 684 -39 926 -5 63 -10 175
-10 248 0 164 12 196 93 242 59 34 80 38 272 48 151 9 230 7 340 -10z"/>
<path d="M10453 2231 c-34 -3 -65 -9 -68 -13 -4 -4 -4 -95 0 -203 7 -182 9
-196 28 -206 24 -13 289 -3 352 13 83 21 120 90 113 212 -4 83 -19 114 -77
153 -54 37 -219 58 -348 44z m263 -76 c28 -8 61 -26 74 -40 42 -45 38 -177 -8
-218 -24 -21 -311 -45 -322 -27 -10 16 -24 276 -15 289 10 17 212 14 271 -4z"/>
<path d="M779 3840 c-98 -17 -199 -93 -268 -205 -88 -140 -143 -377 -186 -805
-13 -123 -18 -200 -44 -600 -9 -138 0 -186 46 -248 46 -61 149 -95 229 -73 51
14 119 71 146 125 19 36 23 70 33 299 7 143 17 262 21 267 5 4 142 11 305 14
269 6 297 6 303 -9 3 -9 6 -121 6 -249 l0 -232 28 -55 c46 -91 161 -141 255
-110 60 20 117 69 139 118 20 45 20 60 15 357 -4 280 -7 324 -30 438 -60 300
-174 523 -365 712 -102 100 -168 149 -277 201 -125 61 -228 76 -356 55z m251
-76 c204 -69 414 -259 543 -494 128 -233 177 -484 177 -911 0 -228 -1 -237
-23 -270 -70 -106 -227 -98 -278 15 -16 36 -19 69 -19 277 0 130 -3 251 -7
269 l-6 33 -356 -8 c-196 -4 -359 -10 -363 -13 -3 -4 -14 -137 -23 -297 -16
-277 -17 -292 -40 -325 -54 -78 -159 -100 -227 -48 -63 48 -72 81 -64 247 22
469 70 897 127 1131 25 103 83 227 137 296 42 52 121 102 182 115 49 11 186 1
240 -17z"/>
<path d="M853 3472 c-30 -19 -80 -187 -112 -378 -11 -61 -14 -107 -9 -110 11
-7 574 5 601 12 9 3 17 12 17 19 0 24 -85 180 -125 231 -107 135 -317 263
-372 226z m152 -112 c99 -66 171 -142 229 -242 15 -26 25 -52 21 -58 -4 -6
-87 -10 -231 -10 -209 0 -224 1 -224 18 0 33 45 221 77 325 8 27 54 15 128
-33z"/>
<path d="M6300 3836 c-178 -38 -305 -214 -369 -511 -45 -206 -87 -569 -107
-922 -4 -68 -11 -123 -16 -123 -6 0 -22 8 -36 18 -39 27 -81 41 -136 47 -27 2
-50 6 -52 8 -2 2 -8 163 -14 358 -5 195 -15 418 -20 497 -6 78 -9 146 -6 151
3 5 23 11 43 14 21 4 60 20 86 37 37 24 54 43 74 87 31 67 32 114 6 175 -24
52 -75 95 -144 119 -42 15 -81 17 -311 12 -295 -5 -335 -12 -399 -70 -21 -19
-45 -54 -55 -79 -9 -24 -18 -44 -20 -44 -2 0 -22 20 -44 44 -70 76 -193 97
-276 46 -49 -31 -78 -81 -204 -356 -159 -347 -360 -746 -373 -741 -22 7 -96
243 -299 959 -36 126 -70 175 -143 203 -69 26 -169 18 -223 -18 -49 -32 -93
-103 -99 -160 -5 -41 27 -171 108 -442 16 -55 39 -131 50 -170 99 -335 277
-810 343 -913 67 -105 166 -152 270 -128 124 29 209 132 416 501 71 127 282
547 349 695 19 41 58 128 88 192 29 65 53 124 53 133 0 23 13 18 46 -16 35
-38 92 -65 156 -74 l47 -7 5 -52 c11 -107 29 -518 38 -861 l3 -100 -111 -6
c-82 -5 -121 -12 -150 -27 -165 -85 -165 -296 1 -385 39 -22 46 -22 430 -19
427 4 433 4 499 66 26 25 56 29 56 7 0 -5 24 -24 52 -42 46 -30 61 -34 119
-34 86 0 150 37 195 112 l31 52 13 260 c7 143 16 264 19 269 3 5 135 11 306
13 l300 4 5 -255 c6 -286 6 -290 82 -354 69 -59 154 -72 233 -35 58 27 110 88
124 144 23 93 4 577 -31 760 -54 290 -169 515 -364 710 -213 214 -429 298
-644 251z m286 -80 c101 -37 211 -112 309 -211 106 -106 164 -185 222 -298
121 -234 160 -438 165 -862 3 -276 2 -285 -62 -338 -71 -60 -190 -36 -234 48
-19 36 -21 58 -22 220 -2 282 -4 339 -13 354 -7 11 -67 12 -364 6 -352 -7
-355 -8 -361 -29 -2 -11 -10 -136 -16 -276 -12 -278 -21 -322 -70 -364 -88
-73 -208 -49 -252 51 -20 45 -20 47 -3 307 28 452 68 794 115 986 60 247 174
399 321 430 65 13 194 2 265 -24z m-943 -49 c50 -38 70 -80 64 -133 -9 -84
-83 -143 -179 -144 -44 0 -50 -4 -50 -30 0 -3 5 -100 12 -217 7 -116 15 -366
19 -555 l6 -343 90 -5 c101 -6 141 -23 175 -70 50 -71 24 -174 -55 -217 -39
-21 -52 -21 -415 -24 -372 -4 -375 -3 -417 19 -70 37 -102 126 -69 190 38 74
85 93 246 101 l125 6 -3 205 c-3 215 -27 760 -38 868 l-6 62 -42 0 c-93 0
-171 41 -205 107 -39 76 28 184 126 204 21 4 160 6 309 6 l271 -2 36 -28z
m-2180 -1 c49 -20 82 -67 102 -143 26 -101 103 -379 125 -448 10 -33 28 -94
40 -135 41 -142 162 -505 173 -518 6 -7 13 -9 17 -5 28 30 236 423 308 583 11
25 39 86 62 135 89 191 109 233 157 336 30 62 61 114 77 127 58 45 140 38 199
-17 70 -64 74 -125 18 -250 -305 -674 -576 -1176 -709 -1309 -77 -78 -164 -94
-239 -45 -68 43 -122 147 -233 443 -128 344 -330 1019 -330 1106 0 117 118
188 233 140z"/>
<path d="M6378 3463 c-9 -10 -27 -55 -41 -99 -33 -103 -81 -350 -73 -370 6
-14 38 -15 294 -9 158 3 295 9 305 11 26 8 21 35 -23 120 -53 103 -111 176
-190 239 -129 104 -237 147 -272 108z m141 -90 c86 -52 198 -164 239 -241 18
-34 30 -67 27 -72 -4 -6 -92 -10 -231 -10 -210 0 -225 1 -220 18 2 9 8 37 11
62 9 59 55 240 67 263 13 25 37 21 107 -20z"/>
<path d="M2035 3819 c-86 -19 -156 -78 -181 -152 -14 -42 -16 -74 -10 -201 10
-204 33 -553 51 -766 51 -605 48 -582 88 -641 12 -18 42 -47 67 -63 58 -39
118 -44 645 -51 l410 -6 50 28 c71 41 108 97 113 177 7 103 -42 178 -142 215
-52 19 -77 21 -314 22 -141 1 -300 4 -352 8 l-95 6 -12 155 c-7 85 -19 241
-28 345 -8 105 -20 313 -25 464 -5 150 -15 291 -20 312 -27 98 -145 169 -245
148z m115 -81 c72 -50 74 -56 82 -296 4 -119 17 -343 28 -497 11 -154 25 -352
31 -440 6 -88 14 -163 18 -167 4 -4 182 -13 396 -19 434 -12 442 -14 484 -82
46 -74 18 -167 -64 -215 l-40 -23 -365 6 c-201 3 -420 9 -486 13 -112 7 -124
10 -159 36 -67 51 -69 60 -114 621 -48 593 -65 915 -51 967 27 97 160 150 240
96z"/>
<path d="M14820 2607 c-89 -25 -151 -78 -182 -156 l-13 -34 -32 51 c-21 35
-48 61 -85 82 l-53 31 -280 -6 c-603 -13 -757 -20 -803 -39 -73 -31 -132 -118
-132 -196 0 -80 53 -158 130 -194 40 -19 65 -21 245 -23 110 0 205 -1 211 -2
13 -1 21 -118 30 -426 10 -303 -18 -449 -94 -503 -60 -43 -186 -52 -252 -17
-14 7 -42 34 -63 59 -52 63 -100 86 -179 86 -83 0 -155 -39 -194 -105 -34 -59
-30 -126 11 -211 84 -172 297 -283 541 -284 211 0 360 54 480 174 109 109 161
233 185 436 14 121 15 500 1 675 -5 66 -6 124 -1 129 4 5 43 12 86 16 95 9
136 26 186 75 20 21 39 36 42 34 2 -3 0 -160 -5 -350 -5 -189 -10 -490 -10
-669 0 -320 1 -326 24 -375 26 -57 70 -98 136 -129 44 -21 54 -21 599 -17 595
4 586 3 650 57 48 40 74 99 75 169 0 74 -20 114 -77 153 -77 52 -96 54 -542
53 l-412 -1 -6 147 c-3 80 -3 153 1 161 4 13 30 14 166 8 552 -24 569 -24 618
-9 27 7 65 28 85 46 43 38 83 118 83 167 -1 74 -65 161 -145 194 -25 11 -126
17 -397 26 -200 6 -374 13 -387 16 l-24 5 7 122 c4 67 11 126 16 131 5 5 78 4
177 -3 92 -6 270 -16 395 -23 209 -10 231 -10 273 6 98 38 148 110 149 212 0
72 -24 117 -81 157 -60 41 -80 45 -275 57 -100 6 -259 17 -353 25 -258 23
-471 28 -525 12z m290 -57 c80 -5 228 -16 330 -24 102 -8 241 -18 310 -21 91
-6 135 -12 162 -26 118 -60 108 -210 -18 -271 l-43 -22 -378 24 c-208 13 -400
24 -428 25 l-50 0 -9 -182 c-4 -100 -6 -189 -3 -196 4 -10 90 -16 408 -26 384
-12 406 -13 449 -35 116 -57 111 -209 -9 -268 l-44 -21 -399 13 c-219 7 -402
10 -406 6 -4 -4 -7 -103 -6 -219 l1 -212 459 -5 c252 -3 468 -9 479 -14 80
-36 117 -103 94 -174 -14 -46 -63 -99 -103 -111 -18 -6 -262 -11 -561 -13
-492 -3 -533 -2 -570 15 -55 25 -92 62 -111 114 -16 40 -16 88 -10 501 10 716
21 969 41 1017 20 48 50 81 90 103 65 33 107 36 325 22z m-636 -53 c54 -30 78
-67 83 -124 6 -61 -23 -108 -87 -140 -36 -19 -61 -23 -135 -23 -49 0 -96 -4
-103 -9 -11 -7 -11 -45 -1 -215 15 -265 7 -655 -16 -746 -38 -153 -79 -232
-163 -312 -97 -93 -198 -132 -366 -144 -199 -14 -355 36 -472 151 -61 60 -104
141 -104 198 0 61 82 127 156 127 52 0 114 -33 143 -75 13 -20 45 -48 70 -63
41 -24 56 -27 141 -27 83 0 102 3 145 25 58 30 105 92 130 173 31 98 31 566
-1 845 l-6 53 -233 -2 c-247 -1 -255 1 -307 49 -85 79 -45 211 75 247 36 11
101 15 221 16 94 1 232 5 306 8 74 4 214 8 310 9 164 2 177 0 214 -21z"/>
<path d="M12045 2593 c-143 -30 -293 -122 -386 -237 -89 -111 -164 -280 -193
-438 -80 -435 16 -797 278 -1045 163 -155 335 -213 566 -193 141 13 216 33
330 88 81 40 109 60 191 142 68 67 109 117 138 170 136 247 171 644 80 920
-125 381 -438 611 -829 609 -58 0 -136 -7 -175 -16z m330 -57 c176 -32 304
-103 432 -239 99 -106 171 -248 210 -413 22 -97 24 -341 4 -454 -79 -443 -359
-689 -785 -690 -194 0 -330 56 -469 193 -157 157 -254 389 -264 637 -15 344
86 648 268 814 72 65 199 131 289 150 87 19 217 19 315 2z"/>
<path d="M12176 2229 c-170 -25 -272 -129 -327 -334 -19 -67 -22 -109 -23
-255 -1 -159 1 -181 22 -240 67 -186 224 -334 371 -348 58 -5 199 22 251 48
60 31 135 105 169 169 55 103 73 195 74 371 1 146 0 160 -28 239 -66 192 -187
311 -352 346 -75 16 -74 16 -157 4z m224 -91 c190 -93 287 -337 246 -619 -24
-168 -66 -258 -154 -327 -50 -40 -89 -56 -175 -72 -76 -14 -111 -10 -177 22
-131 63 -229 209 -251 375 -12 100 0 279 25 376 53 199 154 280 341 274 74 -2
100 -7 145 -29z"/>
<path d="M16825 2583 c-76 -9 -177 -39 -251 -73 -303 -140 -477 -398 -524
-775 -80 -641 246 -1045 843 -1045 257 0 454 66 507 169 31 62 28 145 -8 202
-37 56 -56 73 -116 100 -53 23 -52 23 -220 -10 -197 -38 -318 -24 -420 50
-118 84 -165 228 -145 439 20 211 86 348 213 443 77 57 136 71 300 69 82 -1
155 2 175 9 59 19 102 58 129 118 l26 56 8 -38 c10 -49 40 -106 70 -134 51
-48 82 -53 318 -53 203 0 220 -1 221 -17 0 -10 4 -288 8 -618 9 -673 7 -654
83 -719 104 -89 261 -67 335 47 l28 42 -2 641 -2 642 31 6 c17 3 102 6 189 6
145 0 163 2 211 24 90 40 138 110 138 201 0 83 -46 157 -122 196 -32 16 -60
19 -207 19 -94 0 -248 -5 -343 -10 -95 -6 -308 -14 -473 -18 -270 -7 -304 -10
-345 -29 -51 -23 -103 -72 -120 -114 -7 -16 -15 -29 -19 -29 -4 0 -12 20 -19
45 -16 59 -81 124 -148 148 -39 13 -78 17 -184 16 -74 -1 -148 -4 -165 -6z
m317 -63 c71 -20 128 -89 128 -156 0 -40 -29 -92 -68 -122 -35 -27 -38 -27
-196 -28 -178 -1 -239 -13 -317 -63 -134 -85 -219 -234 -254 -447 -37 -225 2
-398 117 -514 121 -123 291 -152 550 -95 95 21 139 19 179 -8 78 -52 102 -140
56 -208 -29 -43 -110 -84 -207 -106 -116 -26 -380 -23 -485 5 -138 37 -237 94
-330 186 -93 92 -138 171 -181 311 -26 84 -28 103 -28 270 -1 200 18 319 74
462 99 257 330 453 590 502 30 6 64 13 75 15 44 8 262 5 297 -4z m1690 -22
c104 -59 102 -208 -2 -267 -39 -22 -58 -24 -249 -32 -113 -4 -214 -8 -225 -8
-18 -1 -18 -20 -11 -648 8 -722 10 -696 -60 -749 -78 -59 -194 -34 -235 51
-20 42 -21 64 -31 681 -6 351 -13 641 -15 644 -3 3 -117 5 -254 5 -283 0 -283
0 -329 86 -27 51 -25 91 9 147 40 65 54 68 570 89 256 11 539 21 629 22 152 1
166 -1 203 -21z"/>
</g>
</svg>
